<svg xmlns="http://www.w3.org/2000/svg" viewBox="0 0 32 32" width="32" height="32">
  <defs>
    <linearGradient id="bg" x1="0%" y1="0%" x2="100%" y2="100%">
      <stop offset="0%" style="stop-color:#059669;stop-opacity:1" />
      <stop offset="100%" style="stop-color:#10b981;stop-opacity:1" />
    </linearGradient>
    <linearGradient id="coin" x1="0%" y1="0%" x2="100%" y2="100%">
      <stop offset="0%" style="stop-color:#fbbf24;stop-opacity:1" />
      <stop offset="100%" style="stop-color:#f59e0b;stop-opacity:1" />
    </linearGradient>
  </defs>
  
  <!-- Фон -->
  <rect width="32" height="32" rx="6" fill="url(#bg)"/>
  
  <!-- Монета -->
  <circle cx="16" cy="16" r="10" fill="url(#coin)" stroke="#d97706" stroke-width="1"/>
  
  <!-- Символ рубля -->
  <path d="M12 10h4c2 0 3 1 3 3 0 1.5-1 2.5-2.5 2.8v.2h3v2h-3v2h-2v-2h-2v-2h2v-2.8c-1.5-.3-2.5-1.3-2.5-2.8 0-2 1-3 3-3zm2 2v4h2c1 0 1.5-.5 1.5-1.5s-.5-1.5-1.5-1.5h-2z" 
        fill="#92400e" font-family="Arial, sans-serif" font-size="8" font-weight="bold"/>
  
  <!-- Декоративные элементы -->
  <circle cx="8" cy="8" r="1.5" fill="#34d399" opacity="0.6"/>
  <circle cx="24" cy="24" r="1.5" fill="#34d399" opacity="0.6"/>
  <circle cx="8" cy="24" r="1" fill="#6ee7b7" opacity="0.4"/>
  <circle cx="24" cy="8" r="1" fill="#6ee7b7" opacity="0.4"/>
</svg>
